<?xml version="1.0"?>
<svg width="372" height="323" xmlns="http://www.w3.org/2000/svg" xmlns:svg="http://www.w3.org/2000/svg" version="1.1">
 <g class="layer">
  <title>Layer 1</title>
  <rect fill="#999999" height="40.26" id="svg_1" rx="3.36" transform="matrix(0.988228 -0.152986 0.152986 0.988228 0 0)" width="7.14" x="139.84" y="51.36"/>
  <path d="m190.57,68.22a1.72,1.72 0 0 1 -1.33,-2.03l6.5,-31.08a6.69,2.82 -78.2 0 1 4.12,-5.97l1.61,0.33a6.69,2.82 -78.2 0 1 1.39,7.13l-6.49,31.08a1.72,1.72 0 0 1 -2.04,1.33l-3.76,-0.79z" fill="#999999" id="svg_2"/>
  <rect fill="#999999" height="39.7" id="svg_3" rx="3.2" transform="matrix(0.859852 -0.510543 0.510543 0.859852 0 0)" width="7.54" x="59.27" y="93.13"/>
  <rect fill="#999999" height="39.9" id="svg_4" rx="3.13" transform="matrix(0.834848 0.550481 -0.550481 0.834848 0 0)" width="7.44" x="230.19" y="-96.6"/>
  <rect fill="#999999" height="7" id="svg_5" rx="3.43" transform="matrix(1 0 0 1 0 0) matrix(0.783693 0.621148 -0.621148 0.783693 0 0)" width="40.04" x="100.87" y="21.18"/>
  <rect fill="#999999" height="7.62" id="svg_6" rx="3.54" transform="matrix(0.803857 -0.594823 0.594823 0.803857 0 0)" width="40.84" x="140.79" y="232.49"/>
  <path d="m116.29,119.1c-9,11.8 -15.92,26.43 -16.86,40.59q-0.92,14.05 1.85,25.46c0.85,3.51 0.22,5.72 -2.83,7.67a1.11,1.1 53.4 0 1 -1.44,-0.22q-1.36,-1.6 -1.86,-3.51q-3.42,-13.07 -2.85,-25.88q0.23,-5.34 1.17,-11.51q0.93,-6.13 2.62,-10.99c2.57,-7.37 6.08,-15.23 10.83,-21.56c2.22,-2.97 4.05,-6.09 6.69,-8.74q7.52,-7.55 15.06,-12.83q14.84,-10.38 33.82,-13.35q6.92,-1.08 18.11,-0.66c5.77,0.22 11.28,1.94 16.88,3.18q5.45,1.21 11.92,4.41q11.6,5.72 21.84,14.9c7.56,6.77 12.54,14.14 17.68,22.58q2.5,4.11 4.27,9.75q6.16,19.64 3.77,40.3q-0.61,5.25 -2.18,10.43q-0.65,2.16 -2.46,0.82l-2.14,-1.56a4.94,4.94 0 0 1 -1.89,-5.05q4.67,-20.9 -2.57,-42.7q-2.02,-6.06 -4.23,-9.53q-3.7,-5.8 -8.11,-12.19q-1.32,-1.91 -7.12,-7.4q-3.57,-3.38 -9.87,-7.76q-5.74,-3.99 -10.91,-6.19q-10.96,-4.66 -18.93,-5.58q-5.19,-0.6 -14.75,-0.37q-7.67,0.18 -13.56,1.58c-16.34,3.87 -31.99,12.85 -41.95,25.91z" fill="#999999" id="svg_7"/>
  <rect fill="#999999" height="7.72" id="svg_8" rx="3.1" transform="matrix(1 0 0 1 0 0) matrix(0.969872 -0.243615 0.243615 0.969872 0 0)" width="39.8" x="228.49" y="195.98"/>
  <path d="m78.11,141.17a1.52,1.52 0 0 1 -1.9,1.01l-30.95,-9.4a5.17,2.79 16.9 0 1 -4.14,-4.17l0.38,-1.25a5.17,2.79 16.9 0 1 5.76,-1.16l30.95,9.4a1.52,1.52 0 0 1 1.02,1.9l-1.12,3.67z" fill="#999999" id="svg_9" transform="matrix(1 0 0 1 0 0)"/>
  <path d="m175.69,219.3l-42.26,-44.09a0.31,0.31 0 0 1 0,-0.43l42.31,-42.45a0.31,0.31 0 0 1 0.44,0l42.4,42.69a0.31,0.31 0 0 1 0,0.44l-42.45,43.84a0.31,0.31 0 0 1 -0.44,0zm-30.46,-46.19a2.55,2.55 0 0 0 -0.03,3.59l29.01,29.82a2.55,2.55 0 0 0 3.65,0.01l29.13,-29.85a2.55,2.55 0 0 0 -0.02,-3.58l-28.92,-29.03a2.55,2.55 0 0 0 -3.61,0l-29.21,29.04z" fill="#999999" id="svg_10" transform="matrix(1 0 0 1 0 0)"/>
  <rect fill="#999999" height="7.68" id="svg_11" rx="3.68" transform="matrix(1 0 0 1 0 0) matrix(0.994338 0.106264 -0.106264 0.994338 0 0)" width="40.36" x="290.69" y="140.93"/>
  <path d="m75.84,178.24a1.8,1.8 0 0 1 -1.69,1.9l-30.92,1.78a6.79,2.79 -3.3 0 1 -6.94,-2.39l-0.12,-2.04a6.79,2.79 -3.3 0 1 6.62,-3.18l30.92,-1.78a1.8,1.8 0 0 1 1.9,1.69l0.23,4.02z" fill="#999999" id="svg_12"/>
  <path d="m231.32,188.78q13.79,13.89 27.82,27.97a1.91,1.9 51.3 0 1 -0.32,2.95q-2.69,1.71 -5.08,4.03q-20.06,19.53 -36.91,38.03a1.15,1.14 -48.9 0 1 -1.58,0.11q-1.27,-1.04 -2.33,-2.32q-4.08,-4.94 -8.4,-9.42q-11.93,-12.37 -23.69,-23.56q-0.83,-0.79 -1.46,-1.78q-0.83,-1.32 0.27,-2.42q10.24,-10.18 19.79,-20.1c6.44,-6.68 13.09,-12.97 19.36,-19.93q0.96,-1.08 2.24,-1.87q0.43,-0.27 0.9,-0.05c3.5,1.65 6.73,5.68 9.39,8.36zm-39.98,34.01a2.17,2.17 0 0 0 0.01,3.01l22.84,23.58a2.17,2.17 0 0 0 3.12,0l29.76,-30.72a2.17,2.17 0 0 0 -0.02,-3.04l-23.31,-23.41a2.17,2.17 0 0 0 -3.11,0.03l-29.29,30.55z" fill="#999999" id="svg_13" transform="matrix(1 0 0 1 0 0)"/>
  <path d="m135.69,259.91l-43.32,-44.23a0.3,0.3 0 0 1 0,-0.42l36.86,-37.45a0.3,0.3 0 0 1 0.42,0l43.7,44.07a0.3,0.3 0 0 1 0,0.42l-37.24,37.61a0.3,0.3 0 0 1 -0.42,0zm-1.43,-12.56a2.39,2.39 0 0 0 3.44,-0.03l22.64,-23.86a2.39,2.39 0 0 0 -0.01,-3.31l-28.94,-29.92a2.39,2.39 0 0 0 -3.44,0l-23.03,23.85a2.39,2.39 0 0 0 0.01,3.33l29.33,29.94z" fill="#999999" id="svg_14"/>
  <path d="m89.52,218.66l43.45,44.05a0.32,0.32 0 0 1 0,0.44l-36.13,37.36a0.32,0.32 0 0 1 -0.46,0l-43.33,-44.91a0.32,0.32 0 0 1 0,-0.44l36.01,-36.5a0.32,0.32 0 0 1 0.46,0zm6.02,69.87a1.56,1.56 0 0 0 2.23,-0.01l23.76,-24.54a1.56,1.56 0 0 0 0,-2.18l-30.99,-31.64a1.56,1.56 0 0 0 -2.21,-0.02l-24.4,24.1a1.56,1.56 0 0 0 -0.02,2.2l31.63,32.09z" fill="#999999" id="svg_15" transform="matrix(1 0 0 1 0 0)"/>
  <path d="m219.17,262.69l42.94,-44.17a0.4,0.4 0 0 1 0.57,0l38.94,38.92a0.4,0.4 0 0 1 0,0.56l-43.73,44.11a0.4,0.4 0 0 1 -0.57,0l-38.15,-38.86a0.4,0.4 0 0 1 0,-0.56zm71.78,-4.78a0.34,0.34 0 0 0 0,-0.48l-27.89,-28.56a0.34,0.34 0 0 0 -0.48,0l-33.05,34.01a0.34,0.34 0 0 0 0.01,0.48l27.78,27.56a0.34,0.34 0 0 0 0.48,0l33.15,-33.01z" fill="#999999" id="svg_16" transform="matrix(1 0 0 1 0 0)"/>
  <path d="m176.53,225.63l36.05,36.65a1.22,1.22 0 0 1 0,1.72l-35.76,36.25a1.22,1.22 0 0 1 -1.75,-0.01l-35.08,-36.37a1.22,1.22 0 0 1 0,-1.69l34.79,-36.54a1.22,1.22 0 0 1 1.75,-0.01zm24.64,38.79a1.88,1.88 0 0 0 0.01,-2.62l-23.69,-24.58a1.88,1.88 0 0 0 -2.7,-0.01l-23.98,24.58a1.88,1.88 0 0 0 0.01,2.63l23.79,24.3a1.88,1.88 0 0 0 2.68,0l23.88,-24.3z" fill="#999999" id="svg_17"/>
 </g>
</svg>