<?xml version="1.0" encoding="UTF-8" standalone="no"?>
<!DOCTYPE svg PUBLIC "-//W3C//DTD SVG 1.1//EN" "http://www.w3.org/Graphics/SVG/1.1/DTD/svg11.dtd">
<svg xmlns="http://www.w3.org/2000/svg" version="1.1" viewBox="0.00 0.00 372.00 323.00">
<rect fill="#ec882d" x="-3.57" y="-20.13" transform="translate(152.66,48.71) rotate(-8.8)" width="7.14" height="40.26" rx="3.36"/>
<path fill="#ec882d" d="
  M 190.57 68.22
  A 1.72 1.72 0.0 0 1 189.24 66.19
  L 195.74 35.11
  A 6.69 2.82 -78.2 0 1 199.86 29.14
  L 201.47 29.47
  A 6.69 2.82 -78.2 0 1 202.86 36.60
  L 196.37 67.68
  A 1.72 1.72 0.0 0 1 194.33 69.01
  L 190.57 68.22
  Z"
/>
<rect fill="#ec882d" x="-3.77" y="-19.85" transform="translate(111.89,64.96) rotate(-30.7)" width="7.54" height="39.70" rx="3.20"/>
<rect fill="#ec882d" x="-3.72" y="-19.95" transform="translate(237.47,64.77) rotate(33.4)" width="7.44" height="39.90" rx="3.13"/>
<rect fill="#ec882d" x="-20.02" y="-3.50" transform="translate(79.41,94.43) rotate(38.4)" width="40.04" height="7.00" rx="3.43"/>
<rect fill="#ec882d" x="-20.42" y="-3.81" transform="translate(270.15,94.06) rotate(-36.5)" width="40.84" height="7.62" rx="3.54"/>
<path fill="#ec882d" d="
  M 116.29 119.10
  C 107.29 130.90 100.37 145.53 99.43 159.69
  Q 98.51 173.74 101.28 185.15
  C 102.13 188.66 101.50 190.87 98.45 192.82
  A 1.11 1.10 53.4 0 1 97.01 192.60
  Q 95.65 191.00 95.15 189.09
  Q 91.73 176.02 92.30 163.21
  Q 92.53 157.87 93.47 151.70
  Q 94.40 145.57 96.09 140.71
  C 98.66 133.34 102.17 125.48 106.92 119.15
  C 109.14 116.18 110.97 113.06 113.61 110.41
  Q 121.13 102.86 128.67 97.58
  Q 143.51 87.20 162.49 84.23
  Q 169.41 83.15 180.60 83.57
  C 186.37 83.79 191.88 85.51 197.48 86.75
  Q 202.93 87.96 209.40 91.16
  Q 221.00 96.88 231.24 106.06
  C 238.80 112.83 243.78 120.20 248.92 128.64
  Q 251.42 132.75 253.19 138.39
  Q 259.35 158.03 256.96 178.69
  Q 256.35 183.94 254.78 189.12
  Q 254.13 191.28 252.32 189.94
  L 250.18 188.38
  A 4.94 4.94 0.0 0 1 248.29 183.33
  Q 252.96 162.43 245.72 140.63
  Q 243.70 134.57 241.49 131.10
  Q 237.79 125.30 233.38 118.91
  Q 232.06 117.00 226.26 111.51
  Q 222.69 108.13 216.39 103.75
  Q 210.65 99.76 205.48 97.56
  Q 194.52 92.90 186.55 91.98
  Q 181.36 91.38 171.80 91.61
  Q 164.13 91.79 158.24 93.19
  C 141.90 97.06 126.25 106.04 116.29 119.10
  Z"
/>
<rect fill="#ec882d" x="-19.90" y="-3.86" transform="translate(289.59,133.31) rotate(-14.1)" width="39.80" height="7.72" rx="3.10"/>
<path fill="#ec882d" d="
  M 78.11 141.17
  A 1.52 1.52 0.0 0 1 76.21 142.18
  L 45.26 132.78
  A 5.17 2.79 16.9 0 1 41.12 128.61
  L 41.50 127.36
  A 5.17 2.79 16.9 0 1 47.26 126.20
  L 78.21 135.60
  A 1.52 1.52 0.0 0 1 79.23 137.50
  L 78.11 141.17
  Z"
/>
<path fill="#3d859c" d="
  M 175.69 219.30
  L 133.43 175.21
  A 0.31 0.31 0.0 0 1 133.43 174.78
  L 175.74 132.33
  A 0.31 0.31 0.0 0 1 176.18 132.33
  L 218.58 175.02
  A 0.31 0.31 0.0 0 1 218.58 175.46
  L 176.13 219.30
  A 0.31 0.31 0.0 0 1 175.69 219.30
  Z
  M 145.23 173.11
  A 2.55 2.55 0.0 0 0 145.20 176.70
  L 174.21 206.52
  A 2.55 2.55 0.0 0 0 177.86 206.53
  L 206.99 176.68
  A 2.55 2.55 0.0 0 0 206.97 173.10
  L 178.05 144.07
  A 2.55 2.55 0.0 0 0 174.44 144.07
  L 145.23 173.11
  Z"
/>
<rect fill="#ec882d" x="-20.18" y="-3.84" transform="translate(293.73,176.99) rotate(6.1)" width="40.36" height="7.68" rx="3.68"/>
<path fill="#ec882d" d="
  M 75.84 178.24
  A 1.80 1.80 0.0 0 1 74.15 180.14
  L 43.23 181.92
  A 6.79 2.79 -3.3 0 1 36.29 179.53
  L 36.17 177.49
  A 6.79 2.79 -3.3 0 1 42.79 174.31
  L 73.71 172.53
  A 1.80 1.80 0.0 0 1 75.61 174.22
  L 75.84 178.24
  Z"
/>
<path fill="#159dbc" d="
  M 231.32 186.78
  Q 245.11 200.67 259.14 214.75
  A 1.91 1.90 51.3 0 1 258.82 217.70
  Q 256.13 219.41 253.74 221.73
  Q 233.68 241.26 216.83 259.76
  A 1.15 1.14 -48.9 0 1 215.25 259.87
  Q 213.98 258.83 212.92 257.55
  Q 208.84 252.61 204.52 248.13
  Q 192.59 235.76 180.83 224.57
  Q 180.00 223.78 179.37 222.79
  Q 178.54 221.47 179.64 220.37
  Q 189.88 210.19 199.43 200.27
  C 205.87 193.59 212.52 187.30 218.79 180.34
  Q 219.75 179.26 221.03 178.47
  Q 221.46 178.20 221.93 178.42
  C 225.43 180.07 228.66 184.10 231.32 186.78
  Z
  M 191.34 220.79
  A 2.17 2.17 0.0 0 0 191.35 223.80
  L 214.19 247.38
  A 2.17 2.17 0.0 0 0 217.31 247.38
  L 247.07 216.66
  A 2.17 2.17 0.0 0 0 247.05 213.62
  L 223.74 190.21
  A 2.17 2.17 0.0 0 0 220.63 190.24
  L 191.34 220.79
  Z"
/>
<path fill="#159dbc" d="
  M 135.69 259.91
  L 92.37 215.68
  A 0.30 0.30 0.0 0 1 92.37 215.26
  L 129.23 177.81
  A 0.30 0.30 0.0 0 1 129.65 177.81
  L 173.35 221.88
  A 0.30 0.30 0.0 0 1 173.35 222.30
  L 136.11 259.91
  A 0.30 0.30 0.0 0 1 135.69 259.91
  Z
  M 134.26 247.35
  A 2.39 2.39 0.0 0 0 137.70 247.32
  L 160.34 223.46
  A 2.39 2.39 0.0 0 0 160.33 220.15
  L 131.39 190.23
  A 2.39 2.39 0.0 0 0 127.95 190.23
  L 104.92 214.08
  A 2.39 2.39 0.0 0 0 104.93 217.41
  L 134.26 247.35
  Z"
/>
<path fill="#3d859c" d="
  M 89.52 218.66
  L 132.97 262.71
  A 0.32 0.32 0.0 0 1 132.97 263.15
  L 96.84 300.51
  A 0.32 0.32 0.0 0 1 96.38 300.51
  L 53.05 255.60
  A 0.32 0.32 0.0 0 1 53.05 255.16
  L 89.06 218.66
  A 0.32 0.32 0.0 0 1 89.52 218.66
  Z
  M 95.54 288.53
  A 1.56 1.56 0.0 0 0 97.77 288.52
  L 121.53 263.98
  A 1.56 1.56 0.0 0 0 121.53 261.80
  L 90.54 230.16
  A 1.56 1.56 0.0 0 0 88.33 230.14
  L 63.93 254.24
  A 1.56 1.56 0.0 0 0 63.91 256.44
  L 95.54 288.53
  Z"
/>
<path fill="#3d859c" d="
  M 219.17 262.69
  L 262.11 218.52
  A 0.40 0.40 0.0 0 1 262.68 218.52
  L 301.62 257.44
  A 0.40 0.40 0.0 0 1 301.62 258.00
  L 257.89 302.11
  A 0.40 0.40 0.0 0 1 257.32 302.11
  L 219.17 263.25
  A 0.40 0.40 0.0 0 1 219.17 262.69
  Z
  M 290.95 257.91
  A 0.34 0.34 0.0 0 0 290.95 257.43
  L 263.06 228.87
  A 0.34 0.34 0.0 0 0 262.58 228.87
  L 229.53 262.88
  A 0.34 0.34 0.0 0 0 229.54 263.36
  L 257.32 290.92
  A 0.34 0.34 0.0 0 0 257.80 290.92
  L 290.95 257.91
  Z"
/>
<path fill="#3d859c" d="
  M 176.53 225.63
  L 212.58 262.28
  A 1.22 1.22 0.0 0 1 212.58 264.00
  L 176.82 300.25
  A 1.22 1.22 0.0 0 1 175.07 300.24
  L 139.99 263.87
  A 1.22 1.22 0.0 0 1 139.99 262.18
  L 174.78 225.64
  A 1.22 1.22 0.0 0 1 176.53 225.63
  Z
  M 201.17 264.42
  A 1.88 1.88 0.0 0 0 201.18 261.80
  L 177.49 237.22
  A 1.88 1.88 0.0 0 0 174.79 237.21
  L 150.81 261.79
  A 1.88 1.88 0.0 0 0 150.82 264.42
  L 174.61 288.72
  A 1.88 1.88 0.0 0 0 177.29 288.72
  L 201.17 264.42
  Z"
/>
</svg>
