<?xml version="1.0" encoding="UTF-8" standalone="no"?>
<!DOCTYPE svg PUBLIC "-//W3C//DTD SVG 1.1//EN" "http://www.w3.org/Graphics/SVG/1.1/DTD/svg11.dtd">
<svg xmlns="http://www.w3.org/2000/svg" version="1.1" viewBox="0.00 0.00 811.00 544.00">
<rect fill="#ed892c" x="-3.58" y="-20.17" transform="translate(367.16,92.49) rotate(-8.8)" width="7.16" height="40.34" rx="3.39"/>
<path fill="#ed892c" d="
  M 405.05 112.00
  A 1.72 1.72 0.0 0 1 403.72 109.97
  L 410.19 79.03
  A 6.83 2.68 -78.2 0 1 414.21 72.89
  L 416.09 73.28
  A 6.83 2.68 -78.2 0 1 417.31 80.51
  L 410.85 111.46
  A 1.72 1.72 0.0 0 1 408.81 112.79
  L 405.05 112.00
  Z"
/>
<rect fill="#ed892c" x="-3.78" y="-19.88" transform="translate(326.38,108.72) rotate(-30.7)" width="7.56" height="39.76" rx="3.21"/>
<rect fill="#ed892c" x="-3.72" y="-19.99" transform="translate(451.97,108.52) rotate(33.5)" width="7.44" height="39.98" rx="3.13"/>
<rect fill="#ed892c" x="-20.41" y="-3.80" transform="translate(484.61,137.85) rotate(-36.6)" width="40.82" height="7.60" rx="3.45"/>
<rect fill="#ed892c" x="-20.07" y="-3.51" transform="translate(293.88,138.18) rotate(38.4)" width="40.14" height="7.02" rx="3.43"/>
<path fill="#ed892c" d="
  M 414.18 139.07
  Q 405.01 135.90 399.87 135.62
  C 391.45 135.16 381.37 134.96 372.91 136.91
  C 356.44 140.70 340.70 149.82 330.41 163.37
  Q 322.02 174.43 317.45 187.13
  Q 314.17 196.25 313.81 205.32
  Q 313.24 219.45 316.00 229.88
  C 316.71 232.58 315.67 234.77 313.32 236.37
  Q 311.68 237.49 310.88 235.67
  Q 308.84 231.04 307.91 225.24
  Q 306.17 214.34 306.89 205.00
  Q 307.23 200.56 307.83 195.95
  C 309.15 185.82 313.68 175.03 318.79 166.83
  Q 321.14 163.09 324.38 158.66
  Q 327.15 154.88 330.31 151.93
  Q 337.47 145.25 343.25 141.30
  Q 359.76 130.00 379.03 127.75
  Q 385.14 127.04 394.50 127.33
  Q 399.24 127.48 403.34 128.48
  Q 407.71 129.55 411.94 130.49
  Q 418.96 132.04 427.41 136.76
  Q 440.69 144.19 450.20 154.18
  Q 455.55 159.79 461.35 168.93
  Q 466.35 176.80 468.73 185.58
  Q 473.79 204.27 471.25 223.96
  Q 470.60 229.01 468.86 233.99
  A 0.57 0.56 -69.0 0 1 468.11 234.33
  C 465.63 233.28 462.09 230.56 462.72 227.59
  Q 466.87 208.00 461.86 190.08
  Q 460.64 185.73 459.13 181.37
  C 457.15 175.68 453.40 170.91 450.11 165.93
  C 444.39 157.28 435.88 150.50 426.64 144.78
  Q 421.49 141.59 414.18 139.07
  Z"
/>
<path fill="#ed892c" d="
  M 292.63 184.84
  A 1.62 1.62 0.0 0 1 290.61 185.92
  L 259.82 176.57
  A 5.22 2.61 16.9 0 1 255.58 172.55
  L 256.06 170.96
  A 5.22 2.61 16.9 0 1 261.82 169.98
  L 292.61 179.34
  A 1.62 1.62 0.0 0 1 293.69 181.36
  L 292.63 184.84
  Z"
/>
<rect fill="#ed892c" x="-19.87" y="-3.87" transform="translate(504.05,177.09) rotate(-14.1)" width="39.74" height="7.74" rx="3.03"/>
<path fill="#44859e" d="
  M 347.94 218.52
  L 390.21 176.13
  A 0.33 0.33 0.0 0 1 390.67 176.14
  L 433.02 218.77
  A 0.33 0.33 0.0 0 1 433.03 219.23
  L 390.63 263.04
  A 0.33 0.33 0.0 0 1 390.15 263.04
  L 347.93 218.98
  A 0.33 0.33 0.0 0 1 347.94 218.52
  Z
  M 359.72 216.87
  A 2.55 2.55 0.0 0 0 359.68 220.46
  L 388.66 250.34
  A 2.55 2.55 0.0 0 0 392.32 250.34
  L 421.48 220.44
  A 2.55 2.55 0.0 0 0 421.46 216.86
  L 392.53 187.83
  A 2.55 2.55 0.0 0 0 388.92 187.82
  L 359.72 216.87
  Z"
/>
<path fill="#ed892c" d="
  M 488.70 216.57
  A 1.82 1.82 0.0 0 1 490.70 214.96
  L 522.14 218.38
  A 6.70 3.46 6.2 0 1 528.43 222.54
  L 528.34 223.34
  A 6.70 3.46 6.2 0 1 521.30 226.05
  L 489.87 222.64
  A 1.82 1.82 0.0 0 1 488.26 220.63
  L 488.70 216.57
  Z"
/>
<path fill="#ed892c" d="
  M 290.31 222.02
  A 1.81 1.81 0.0 0 1 288.61 223.93
  L 257.71 225.71
  A 6.86 3.01 -3.3 0 1 250.69 223.10
  L 250.60 221.46
  A 6.86 3.01 -3.3 0 1 257.27 218.06
  L 288.17 216.28
  A 1.81 1.81 0.0 0 1 290.08 217.98
  L 290.31 222.02
  Z"
/>
<path fill="#179cbb" d="
  M 436.35 222.19
  Q 438.11 222.88 439.32 224.11
  Q 455.57 240.50 473.45 258.30
  A 2.16 2.16 0.0 0 1 473.17 261.60
  C 471.21 262.97 469.28 264.35 467.60 266.01
  Q 449.32 284.03 431.27 303.54
  A 1.11 1.10 39.5 0 1 429.80 303.68
  Q 428.83 302.96 428.01 301.99
  C 417.96 290.15 406.87 279.42 395.74 268.78
  Q 394.57 267.66 393.59 266.34
  Q 393.30 265.95 393.50 265.52
  Q 394.23 263.97 395.11 263.11
  Q 404.76 253.64 414.36 243.61
  C 420.32 237.38 426.72 231.37 432.51 224.91
  Q 433.79 223.48 435.49 222.29
  A 0.92 0.91 38.0 0 1 436.35 222.19
  Z
  M 405.82 264.58
  A 2.18 2.18 0.0 0 0 405.83 267.61
  L 428.68 291.16
  A 2.18 2.18 0.0 0 0 431.81 291.15
  L 461.53 260.43
  A 2.18 2.18 0.0 0 0 461.51 257.37
  L 438.22 233.98
  A 2.18 2.18 0.0 0 0 435.10 234.01
  L 405.82 264.58
  Z"
/>
<path fill="#179cbb" d="
  M 350.17 303.68
  L 306.84 259.46
  A 0.31 0.31 0.0 0 1 306.84 259.02
  L 343.69 221.58
  A 0.31 0.31 0.0 0 1 344.13 221.58
  L 387.80 265.65
  A 0.31 0.31 0.0 0 1 387.80 266.09
  L 350.61 303.68
  A 0.31 0.31 0.0 0 1 350.17 303.68
  Z
  M 348.67 291.06
  A 2.49 2.49 0.0 0 0 352.26 291.03
  L 374.74 267.30
  A 2.49 2.49 0.0 0 0 374.73 263.86
  L 345.94 234.05
  A 2.49 2.49 0.0 0 0 342.36 234.05
  L 319.45 257.80
  A 2.49 2.49 0.0 0 0 319.47 261.27
  L 348.67 291.06
  Z"
/>
<path fill="#44859e" d="
  M 303.99 262.43
  L 347.44 306.48
  A 0.33 0.33 0.0 0 1 347.45 306.94
  L 311.34 344.27
  A 0.33 0.33 0.0 0 1 310.86 344.27
  L 267.55 299.37
  A 0.33 0.33 0.0 0 1 267.56 298.91
  L 303.53 262.43
  A 0.33 0.33 0.0 0 1 303.99 262.43
  Z
  M 310.05 332.32
  A 1.56 1.56 0.0 0 0 312.28 332.31
  L 336.00 307.74
  A 1.56 1.56 0.0 0 0 335.99 305.57
  L 305.02 273.90
  A 1.56 1.56 0.0 0 0 302.80 273.88
  L 278.42 298.01
  A 1.56 1.56 0.0 0 0 278.40 300.22
  L 310.05 332.32
  Z"
/>
<path fill="#44859e" d="
  M 433.77 306.36
  L 476.50 262.38
  A 0.53 0.53 0.0 0 1 477.25 262.37
  L 516.01 301.13
  A 0.53 0.53 0.0 0 1 516.01 301.87
  L 472.46 345.80
  A 0.53 0.53 0.0 0 1 471.70 345.80
  L 433.77 307.10
  A 0.53 0.53 0.0 0 1 433.77 306.36
  Z
  M 505.6244 301.3529
  A 0.26 0.26 0.0 0 0 505.6238 300.9852
  L 477.5169 272.9762
  A 0.26 0.26 0.0 0 0 477.1492 272.9768
  L 443.7756 306.4671
  A 0.26 0.26 0.0 0 0 443.7762 306.8348
  L 471.8831 334.8438
  A 0.26 0.26 0.0 0 0 472.2508 334.8432
  L 505.6244 301.3529
  Z"
/>
<path fill="#44859e" d="
  M 391.09 269.51
  L 426.96 305.97
  A 1.34 1.34 0.0 0 1 426.96 307.85
  L 391.40 343.94
  A 1.34 1.34 0.0 0 1 389.49 343.93
  L 354.56 307.72
  A 1.34 1.34 0.0 0 1 354.56 305.87
  L 389.17 269.52
  A 1.34 1.34 0.0 0 1 391.09 269.51
  Z
  M 415.57 308.24
  A 2.00 2.00 0.0 0 0 415.58 305.45
  L 392.05 281.07
  A 2.00 2.00 0.0 0 0 389.18 281.06
  L 365.39 305.49
  A 2.00 2.00 0.0 0 0 365.39 308.29
  L 389.01 332.46
  A 2.00 2.00 0.0 0 0 391.87 332.46
  L 415.57 308.24
  Z"
/>
<path fill="#44859e" d="
  M 61.09 411.25
  Q 60.71 412.02 60.70 413.25
  Q 60.67 419.84 60.65 426.17
  Q 60.65 428.87 57.94 428.88
  L 54.76 428.88
  Q 52.38 428.88 52.39 426.50
  Q 52.43 412.06 52.52 396.14
  C 52.56 389.67 60.89 386.91 66.01 386.36
  Q 68.20 386.12 76.42 386.44
  Q 78.27 386.51 78.50 388.35
  L 78.63 389.40
  Q 78.90 391.49 76.79 391.44
  C 73.16 391.36 63.72 391.53 61.51 394.27
  C 60.13 395.99 60.68 400.68 60.80 402.85
  A 1.72 1.71 88.2 0 0 62.51 404.46
  L 97.58 404.64
  Q 100.24 404.66 100.35 407.32
  L 100.38 408.03
  Q 100.48 410.29 98.22 410.29
  L 62.72 410.26
  A 1.81 1.81 0.0 0 0 61.09 411.25
  Z"
/>
<rect fill="#44859e" x="161.31" y="386.39" width="7.82" height="42.32" rx="3.08"/>
<path fill="#44859e" d="
  M 176.20 388.22
  A 1.91 1.91 0.0 0 1 178.11 386.31
  L 179.99 386.31
  A 4.47 4.33 90.0 0 1 184.32 390.78
  L 184.32 423.88
  A 4.47 4.33 90.0 0 1 179.99 428.35
  L 178.11 428.35
  A 1.91 1.91 0.0 0 1 176.20 426.44
  L 176.20 388.22
  Z"
/>
<path fill="#44859e" d="
  M 222.23 402.74
  Q 225.50 404.47 228.87 404.59
  Q 236.02 404.85 244.22 404.67
  C 250.67 404.52 261.24 406.81 261.43 415.19
  C 261.50 418.14 261.99 421.45 259.97 423.83
  C 256.49 427.95 249.27 428.17 244.21 428.04
  Q 238.82 427.91 233.45 428.33
  Q 226.08 428.90 214.41 427.37
  Q 213.89 427.30 213.68 426.82
  Q 213.09 425.44 214.01 424.22
  Q 214.31 423.83 214.80 423.81
  Q 223.22 423.47 231.81 423.48
  C 238.44 423.49 245.54 424.74 251.83 421.77
  Q 252.30 421.55 252.41 421.04
  C 253.10 417.90 253.87 412.79 249.50 411.82
  Q 245.44 410.93 241.39 410.67
  Q 232.56 410.10 224.56 410.51
  C 220.16 410.74 214.54 408.95 213.56 403.97
  Q 212.61 399.12 213.28 394.93
  C 214.87 385.02 229.19 386.16 236.38 386.37
  Q 238.16 386.42 238.23 388.20
  L 238.28 389.36
  A 2.01 2.00 89.1 0 1 236.25 391.46
  C 231.42 391.39 226.72 391.38 222.56 394.13
  C 220.29 395.63 220.72 399.87 221.57 402.01
  A 1.45 1.41 -88.0 0 0 222.23 402.74
  Z"
/>
<path fill="#44859e" d="
  M 450.12 410.05
  Q 449.17 410.06 449.09 411.00
  Q 448.68 415.81 449.32 420.26
  C 450.08 425.61 464.96 423.96 468.44 423.99
  Q 477.32 424.05 486.98 424.53
  Q 488.45 424.60 488.47 426.07
  Q 488.48 426.22 488.46 426.37
  Q 488.35 427.51 487.20 427.48
  Q 476.13 427.13 464.31 427.53
  C 457.78 427.76 451.36 427.62 445.42 424.82
  C 442.68 423.53 441.21 421.36 441.05 418.34
  Q 440.57 409.13 440.69 398.22
  Q 440.75 392.88 444.71 389.92
  Q 449.39 386.43 454.40 386.28
  Q 461.01 386.08 467.32 386.45
  Q 469.39 386.57 469.47 388.65
  L 469.49 389.26
  Q 469.57 391.30 467.53 391.33
  C 461.71 391.43 456.11 390.96 450.58 393.29
  A 1.85 1.85 0.0 0 0 449.49 394.59
  Q 448.61 398.47 449.19 403.65
  Q 449.31 404.73 450.40 404.72
  Q 467.59 404.51 487.67 405.14
  Q 489.03 405.19 488.99 406.54
  L 488.93 408.48
  Q 488.89 410.03 487.34 410.13
  Q 481.85 410.48 477.05 410.33
  Q 462.95 409.90 450.12 410.05
  Z"
/>
<path fill="#44859e" d="
  M 328.63 390.38
  L 328.78 425.44
  A 3.03 3.03 0.0 0 1 325.50 428.48
  L 323.13 428.28
  A 3.03 3.03 0.0 0 1 320.35 425.24
  L 320.61 389.42
  A 3.03 3.03 0.0 0 1 324.97 386.72
  L 326.92 387.67
  A 3.03 3.03 0.0 0 1 328.63 390.38
  Z"
/>
<path fill="#44859e" d="
  M 376.33 404.42
  C 372.72 401.68 366.75 401.66 362.29 401.77
  Q 360.38 401.81 360.54 399.90
  Q 360.72 397.85 360.73 397.72
  Q 360.90 395.78 362.81 395.86
  Q 366.21 396.00 369.94 396.03
  C 373.52 396.06 377.06 397.12 380.29 398.62
  Q 384.44 400.53 384.65 405.34
  Q 385.07 414.53 384.03 422.61
  Q 383.89 423.70 383.01 424.36
  Q 377.67 428.39 372.40 428.00
  Q 369.40 427.78 366.47 427.96
  Q 356.13 428.59 347.61 427.95
  C 342.49 427.57 336.67 426.06 335.88 419.96
  C 335.14 414.27 335.83 410.18 341.94 407.63
  Q 345.60 406.10 348.74 406.13
  Q 359.73 406.22 372.03 406.37
  Q 373.90 406.39 375.87 406.14
  A 0.96 0.96 0.0 0 0 376.33 404.42
  Z
  M 345.21 413.31
  C 342.69 414.73 343.15 418.57 343.39 420.93
  Q 343.44 421.43 343.88 421.65
  Q 347.18 423.27 350.02 423.41
  Q 359.21 423.88 369.71 424.04
  C 372.22 424.07 374.51 423.26 376.88 422.43
  Q 377.38 422.26 377.36 421.73
  L 376.97 413.11
  A 1.39 1.39 0.0 0 0 375.58 411.78
  Q 363.72 411.76 352.23 411.48
  Q 348.62 411.39 345.21 413.31
  Z"
/>
<path fill="#44859e" d="
  M 533.35 406.53
  C 533.30 403.13 530.48 401.78 527.40 401.67
  Q 515.58 401.24 507.77 401.76
  Q 502.86 402.09 502.97 407.15
  Q 503.16 416.12 501.80 425.98
  A 1.33 1.33 0.0 0 1 500.79 427.10
  Q 498.83 427.57 496.80 426.99
  A 1.20 1.20 0.0 0 1 495.94 425.91
  Q 495.48 417.45 495.26 409.11
  C 495.16 405.16 495.52 400.16 499.66 398.40
  C 503.76 396.65 507.38 395.72 511.85 395.75
  Q 520.71 395.82 528.64 396.09
  C 533.43 396.26 540.88 398.42 541.13 404.23
  Q 541.58 414.42 540.89 423.85
  A 4.32 3.71 -89.9 0 1 537.50 427.79
  Q 537.26 427.81 537.02 427.85
  Q 534.63 428.30 534.40 425.88
  Q 533.50 416.25 533.35 406.53
  Z"
/>
<path fill="#44859e" d="
  M 555.59 419.05
  Q 555.96 420.03 556.55 420.78
  Q 558.82 423.66 562.26 423.99
  C 565.23 424.28 568.54 423.55 571.48 424.37
  Q 572.05 424.53 572.23 425.10
  Q 572.52 425.97 572.25 426.84
  A 1.44 1.42 -81.0 0 1 570.89 427.84
  Q 565.27 427.85 559.56 427.66
  C 552.56 427.42 547.58 425.04 547.11 417.18
  Q 546.80 411.97 547.07 406.74
  Q 547.39 400.35 553.58 397.91
  Q 558.81 395.85 562.85 395.81
  Q 571.00 395.73 580.32 395.96
  C 585.21 396.08 593.18 398.26 593.62 404.29
  Q 594.03 409.92 593.43 414.81
  A 1.22 1.22 0.0 0 1 592.22 415.88
  L 557.73 415.97
  Q 554.44 415.97 555.59 419.05
  Z
  M 556.69 410.94
  L 584.31 410.98
  A 1.71 1.71 0.0 0 0 586.02 409.28
  L 586.03 406.35
  A 11.67 4.78 0.1 0 0 574.37 401.55
  L 566.67 401.53
  A 11.67 4.78 0.1 0 0 554.99 406.29
  L 554.98 409.22
  A 1.71 1.71 0.0 0 0 556.69 410.94
  Z"
/>
<path fill="#44859e" d="
  M 145.31 420.89
  C 145.41 419.24 145.79 417.61 145.77 415.95
  Q 145.67 408.56 145.78 400.95
  Q 145.80 399.41 146.22 397.51
  Q 146.61 395.72 148.43 395.95
  L 151.92 396.39
  A 2.18 2.17 -88.1 0 1 153.82 398.43
  Q 154.37 408.44 153.88 419.46
  C 153.55 426.58 142.83 428.87 137.46 428.94
  Q 129.14 429.05 120.17 429.07
  C 115.29 429.08 109.08 427.57 107.08 422.56
  Q 106.24 420.43 106.21 416.92
  Q 106.14 407.68 106.46 398.68
  Q 106.56 395.92 109.32 395.98
  L 111.83 396.04
  Q 114.26 396.10 114.30 398.53
  Q 114.49 409.58 114.34 417.74
  Q 114.30 419.53 115.03 420.99
  Q 115.26 421.44 115.73 421.61
  Q 120.52 423.30 123.07 423.38
  C 129.95 423.59 137.95 424.30 144.71 421.70
  Q 145.27 421.48 145.31 420.89
  Z"
/>
<path fill="#44859e" d="
  M 274.28 426.64
  C 270.24 425.70 267.37 421.77 267.40 417.45
  Q 267.45 412.48 267.35 407.86
  C 267.21 400.56 272.52 398.20 278.54 396.52
  Q 280.82 395.88 283.61 395.92
  Q 292.25 396.04 299.54 396.00
  Q 304.67 395.97 309.25 398.77
  Q 313.49 401.35 313.63 406.57
  Q 313.80 412.86 313.55 418.55
  Q 313.29 424.35 307.77 426.07
  C 302.15 427.82 296.16 427.35 290.41 427.76
  C 285.32 428.13 279.20 427.79 274.28 426.64
  Z
  M 305.63 418.73
  L 305.75 407.25
  A 5.48 5.48 0.0 0 0 300.33 401.71
  L 284.86 401.55
  A 9.35 5.21 0.6 0 0 275.45 406.66
  L 275.33 418.68
  A 9.35 5.21 0.6 0 0 284.62 423.99
  L 300.09 424.15
  A 5.48 5.48 0.0 0 0 305.63 418.73
  Z"
/>
<path fill="#44859e" d="
  M 410.40 401.73
  C 405.73 401.45 398.60 401.79 398.57 408.04
  Q 398.53 418.40 398.01 426.46
  Q 397.93 427.73 396.66 427.74
  L 392.90 427.77
  Q 391.19 427.79 391.03 426.09
  Q 389.91 414.00 390.88 405.42
  C 391.86 396.71 404.15 395.40 410.29 396.41
  Q 412.80 396.82 413.03 399.27
  Q 413.12 400.33 411.79 401.31
  A 2.15 2.14 -61.8 0 1 410.40 401.73
  Z"
/>
<path fill="#44859e" d="
  M 599.09 403.23
  C 602.18 396.11 611.87 395.31 618.86 396.17
  A 2.05 2.04 -3.3 0 1 620.58 397.69
  Q 621.45 401.10 618.06 401.65
  C 615.28 402.10 606.66 401.74 606.64 406.34
  Q 606.60 416.58 606.27 426.58
  A 1.92 1.91 88.3 0 1 604.54 428.42
  Q 602.19 428.63 599.49 427.91
  Q 599.01 427.78 598.94 427.29
  Q 597.93 420.53 597.82 411.02
  Q 597.77 406.29 599.09 403.23
  Z"
/>
<path fill="#44859e" d="
  M 663.42 429.38
  C 655.40 428.41 647.39 428.88 639.49 428.73
  Q 636.43 428.68 632.08 426.86
  C 626.77 424.64 626.45 419.24 626.48 414.29
  C 626.53 407.71 625.23 400.82 633.13 398.15
  C 636.69 396.95 640.10 395.90 643.94 395.92
  Q 650.93 395.95 657.74 396.11
  Q 663.23 396.24 668.90 399.38
  Q 673.62 401.98 673.66 406.93
  Q 673.77 418.62 673.72 428.47
  C 673.70 432.50 670.87 435.21 667.41 436.71
  Q 659.67 440.08 650.40 438.63
  Q 648.19 438.28 648.36 436.05
  L 648.39 435.58
  Q 648.56 433.28 650.86 433.46
  Q 658.23 434.05 663.69 430.55
  Q 665.18 429.60 663.42 429.38
  Z
  M 665.07 406.29
  C 664.61 400.21 644.65 401.52 640.85 401.73
  Q 638.76 401.85 636.24 403.29
  C 634.77 404.12 634.40 405.49 634.40 407.05
  Q 634.43 411.91 634.60 417.26
  C 634.81 423.60 640.99 423.45 645.56 423.43
  Q 654.84 423.37 663.70 423.26
  A 1.36 1.35 1.9 0 0 665.03 422.02
  Q 665.68 414.32 665.07 406.29
  Z"
/>
<path fill="#44859e" d="
  M 718.50 430.70
  Q 719.39 429.69 718.07 429.43
  Q 715.12 428.84 712.54 428.81
  Q 704.43 428.71 695.50 429.07
  C 691.70 429.23 688.17 428.52 684.90 426.67
  C 681.46 424.72 680.63 421.81 680.69 417.71
  Q 680.81 409.34 680.86 399.40
  C 680.87 396.69 682.22 395.68 684.86 395.95
  Q 688.68 396.32 688.71 400.20
  Q 688.78 407.91 688.56 415.86
  Q 688.49 418.30 689.16 420.55
  C 689.85 422.90 696.14 423.19 698.20 423.22
  Q 708.47 423.37 717.68 423.07
  A 1.61 1.60 89.3 0 0 719.23 421.47
  Q 719.28 412.87 719.57 399.73
  Q 719.65 395.80 723.34 396.06
  C 725.94 396.24 727.25 397.05 727.24 399.86
  Q 727.21 414.67 727.26 428.74
  C 727.30 440.01 712.50 439.36 704.71 438.93
  Q 702.55 438.81 702.60 436.64
  L 702.63 435.58
  Q 702.69 433.01 705.24 433.29
  C 709.38 433.73 715.72 433.81 718.50 430.70
  Z"
/>
</svg>
