<?xml version="1.0" encoding="UTF-8"?>
<svg id="Capa_1" data-name="Capa 1" xmlns="http://www.w3.org/2000/svg" viewBox="0 0 811 389">
  <defs>
    <style>
      .cls-1 {
        fill: #179cbb;
      }

      .cls-2 {
        fill: #44859e;
      }

      .cls-3 {
        fill: #ed892c;
      }
    </style>
  </defs>
  <rect class="cls-3" x="363.58" y="10.32" width="7.16" height="40.34" rx="3.39" ry="3.39" transform="translate(-.34 56.53) rotate(-8.8)"/>
  <path class="cls-3" d="m405.05,50c-.93-.2-1.52-1.1-1.33-2.03l6.47-30.94c.77-3.69,2.57-6.44,4.02-6.14,0,0,0,0,0,0l1.88.39c1.44.31,1.99,3.55,1.22,7.23l-6.46,30.95c-.19.93-1.11,1.53-2.04,1.33,0,0,0,0,0,0l-3.76-.79Z"/>
  <rect class="cls-3" x="322.6" y="26.84" width="7.56" height="39.76" rx="3.21" ry="3.21" transform="translate(21.89 173.18) rotate(-30.7)"/>
  <rect class="cls-3" x="431.98" y="42.8" width="39.98" height="7.44" rx="3.13" ry="3.13" transform="translate(163.72 397.74) rotate(-56.5)"/>
  <rect class="cls-3" x="464.2" y="72.05" width="40.82" height="7.6" rx="3.45" ry="3.45" transform="translate(50.33 303.89) rotate(-36.6)"/>
  <rect class="cls-3" x="290.37" y="56.11" width="7.02" height="40.14" rx="3.43" ry="3.43" transform="translate(51.64 259.17) rotate(-51.6)"/>
  <path class="cls-3" d="m414.18,77.07c-6.11-2.11-10.88-3.26-14.31-3.45-8.42-.46-18.5-.66-26.96,1.29-16.47,3.79-32.21,12.91-42.5,26.46-5.59,7.37-9.91,15.29-12.96,23.76-2.19,6.08-3.4,12.14-3.64,18.19-.38,9.42.35,17.61,2.19,24.56.71,2.7-.33,4.89-2.68,6.49-1.09.75-1.91.51-2.44-.7-1.36-3.09-2.35-6.56-2.97-10.43-1.16-7.27-1.5-14.01-1.02-20.24.23-2.96.54-5.98.94-9.05,1.32-10.13,5.85-20.92,10.96-29.12,1.57-2.49,3.43-5.22,5.59-8.17,1.85-2.52,3.82-4.76,5.93-6.73,4.77-4.45,9.09-8,12.94-10.63,11.01-7.53,22.93-12.05,35.78-13.55,4.07-.47,9.23-.61,15.47-.42,3.16.1,6.11.48,8.84,1.15,2.91.71,5.78,1.38,8.6,2.01,4.68,1.03,9.84,3.12,15.47,6.27,8.85,4.95,16.45,10.76,22.79,17.42,3.57,3.74,7.28,8.66,11.15,14.75,3.33,5.25,5.79,10.8,7.38,16.65,3.37,12.46,4.21,25.25,2.52,38.38-.43,3.37-1.23,6.71-2.39,10.03-.1.3-.43.45-.72.35-.01,0-.02,0-.03-.01-2.48-1.05-6.02-3.77-5.39-6.74,2.77-13.06,2.48-25.56-.86-37.51-.81-2.9-1.72-5.8-2.73-8.71-1.98-5.69-5.73-10.46-9.02-15.44-5.72-8.65-14.23-15.43-23.47-21.15-3.43-2.13-7.59-4.03-12.46-5.71Z"/>
  <path class="cls-3" d="m292.63,122.84c-.26.86-1.16,1.34-2.02,1.08l-30.79-9.35c-2.76-.84-4.66-2.63-4.24-4.01,0,0,0,0,0,0l.48-1.59c.42-1.38,2.99-1.82,5.75-.98,0,0,0,0,.01,0l30.79,9.36c.86.26,1.34,1.16,1.08,2.02l-1.06,3.48Z"/>
  <rect class="cls-3" x="484.18" y="111.22" width="39.74" height="7.74" rx="3.03" ry="3.03" transform="translate(-12.85 126.26) rotate(-14.1)"/>
  <path class="cls-2" d="m347.94,156.52l42.27-42.39c.13-.12.33-.12.46,0l42.35,42.63c.13.13.13.33.01.46l-42.4,43.81c-.13.13-.33.14-.47.01,0,0,0,0-.01-.01l-42.22-44.06c-.12-.13-.12-.33.01-.46Zm11.78-1.65c-1,.98-1.01,2.59-.04,3.59l28.98,29.88c.98,1.01,2.6,1.03,3.61.05.02-.02.04-.04.05-.05l29.16-29.9c.97-1,.96-2.59-.02-3.58l-28.93-29.03c-.99-1-2.61-1.01-3.61-.01h0s-29.2,29.05-29.2,29.05Z"/>
  <path class="cls-3" d="m488.7,154.57c.11-1,1-1.72,2-1.61l31.44,3.42c3.68.4,6.49,2.26,6.29,4.16l-.09.8c-.21,1.9-3.36,3.11-7.04,2.71l-31.43-3.41c-1-.11-1.72-1.01-1.61-2.01,0,0,0,0,0,0l.44-4.06Z"/>
  <path class="cls-3" d="m290.31,160.02c.06,1-.7,1.85-1.7,1.91l-30.9,1.78c-3.78.22-6.92-.95-7.02-2.61l-.09-1.64c-.1-1.66,2.89-3.18,6.67-3.4l30.9-1.78c1-.06,1.85.7,1.91,1.7l.23,4.04Z"/>
  <path class="cls-1" d="m436.35,160.19c1.17.46,2.16,1.1,2.97,1.92,10.83,10.93,22.21,22.32,34.13,34.19.85.84.85,2.21.01,3.05-.09.09-.19.17-.29.25-1.96,1.37-3.89,2.75-5.57,4.41-12.19,12.01-24.3,24.52-36.33,37.53-.38.41-1.01.48-1.47.14-.65-.48-1.24-1.04-1.79-1.69-10.05-11.84-21.14-22.57-32.27-33.21-.78-.75-1.5-1.56-2.15-2.44-.19-.26-.22-.53-.09-.82.49-1.03,1.02-1.84,1.61-2.41,6.43-6.31,12.85-12.81,19.25-19.5,5.96-6.23,12.36-12.24,18.15-18.7.85-.95,1.85-1.83,2.98-2.62.25-.18.57-.21.86-.1Zm-30.53,42.39c-.81.85-.81,2.19,0,3.03l22.85,23.55c.84.86,2.22.88,3.08.04.02-.02.03-.03.05-.05l29.72-30.72c.83-.85.82-2.22-.02-3.06l-23.29-23.39c-.85-.85-2.23-.86-3.08,0-.01.01-.02.03-.04.04l-29.28,30.57Z"/>
  <path class="cls-1" d="m350.17,241.68l-43.33-44.22c-.12-.12-.12-.32,0-.44,0,0,0,0,0,0l36.85-37.44c.12-.12.32-.12.44,0,0,0,0,0,0,0l43.67,44.07c.12.12.12.32,0,.44,0,0,0,0,0,0l-37.19,37.59c-.12.12-.32.12-.44,0h0Zm-1.5-12.62c.96.98,2.54,1,3.52.04.02-.02.05-.05.07-.07l22.48-23.73c.92-.97.91-2.48,0-3.44l-28.79-29.81c-.96-.99-2.53-1.02-3.52-.06-.02.02-.04.04-.06.06l-22.91,23.75c-.93.97-.92,2.51.02,3.47l29.2,29.79Z"/>
  <path class="cls-2" d="m303.99,200.43l43.45,44.05c.13.13.13.33.01.46l-36.11,37.33c-.13.13-.33.14-.47.01,0,0,0,0-.01-.01l-43.31-44.9c-.12-.13-.12-.33.01-.46l35.97-36.48c.13-.12.33-.12.46,0Zm6.06,69.89c.61.61,1.59.62,2.21.01,0,0,.02-.02.02-.02l23.72-24.57c.58-.61.58-1.57-.01-2.17l-30.97-31.67c-.6-.62-1.59-.63-2.21-.03,0,0,0,0-.01.01l-24.38,24.13c-.62.6-.63,1.59-.02,2.21,0,0,0,0,0,0l31.65,32.1Z"/>
  <path class="cls-2" d="m433.77,244.36l42.73-43.98c.2-.21.54-.21.75-.01,0,0,0,0,0,0l38.76,38.76c.2.21.2.53,0,.74l-43.55,43.93c-.2.21-.54.21-.75.01,0,0,0,0-.01-.01l-37.93-38.7c-.2-.21-.2-.53,0-.74Zm71.85-5.01c.1-.1.1-.27,0-.37t0,0l-28.11-28.01c-.1-.1-.27-.1-.37,0h0l-33.37,33.49c-.1.1-.1.27,0,.37h0l28.11,28.01c.1.1.27.1.37,0h0l33.37-33.49Z"/>
  <path class="cls-2" d="m391.09,207.51l35.87,36.46c.51.52.51,1.36,0,1.88l-35.56,36.09c-.52.52-1.37.53-1.9,0,0,0-.01-.01-.01-.02l-34.93-36.21c-.49-.52-.49-1.33,0-1.85l34.61-36.35c.51-.53,1.36-.55,1.89-.03,0,0,.02.02.03.02Zm24.48,38.73c.76-.77.76-2.01,0-2.79l-23.53-24.38c-.77-.8-2.03-.82-2.83-.05-.01.01-.03.03-.04.04l-23.79,24.43c-.76.78-.76,2.02,0,2.8l23.62,24.17c.77.79,2.04.8,2.83.03.01-.01.02-.02.03-.03l23.7-24.22Z"/>
  <path class="cls-2" d="m61.09,349.25c-.25.51-.38,1.18-.39,2-.02,4.39-.04,8.7-.05,12.92,0,1.8-.9,2.7-2.71,2.71h-3.18c-1.59,0-2.38-.79-2.37-2.38.03-9.63.07-19.75.13-30.36.04-6.47,8.37-9.23,13.49-9.78,1.46-.16,4.93-.13,10.41.08,1.23.05,1.93.68,2.08,1.91l.13,1.05c.18,1.39-.43,2.07-1.84,2.04-3.63-.08-13.07.09-15.28,2.83-1.38,1.72-.83,6.41-.71,8.58.06.91.81,1.61,1.71,1.61l35.07.18c1.77.01,2.7.91,2.77,2.68l.03.71c.07,1.51-.65,2.26-2.16,2.26l-35.5-.03c-.69,0-1.32.38-1.63.99Z"/>
  <rect class="cls-2" x="161.31" y="324.39" width="7.82" height="42.32" rx="3.08" ry="3.08"/>
  <path class="cls-2" d="m176.2,326.22c0-1.05.86-1.91,1.91-1.91h1.88c2.39,0,4.33,2,4.33,4.47h0v33.1c0,2.47-1.94,4.47-4.33,4.47h-1.88c-1.05,0-1.91-.86-1.91-1.91h0v-38.22Z"/>
  <path class="cls-2" d="m222.23,340.74c2.18,1.15,4.39,1.77,6.64,1.85,4.77.17,9.88.2,15.35.08,6.45-.15,17.02,2.14,17.21,10.52.07,2.95.56,6.26-1.46,8.64-3.48,4.12-10.7,4.34-15.76,4.21-3.59-.09-7.18.01-10.76.29-4.91.38-11.26.06-19.04-.96-.35-.05-.59-.23-.73-.55-.39-.92-.28-1.79.33-2.6.2-.26.46-.4.79-.41,5.61-.23,11.28-.34,17.01-.33,6.63,0,13.73,1.26,20.02-1.71.31-.15.51-.39.58-.73.69-3.14,1.46-8.25-2.91-9.22-2.71-.59-5.41-.98-8.11-1.15-5.89-.38-11.5-.43-16.83-.16-4.4.23-10.02-1.56-11-6.54-.63-3.23-.73-6.25-.28-9.04,1.59-9.91,15.91-8.77,23.1-8.56,1.19.03,1.8.64,1.85,1.83l.05,1.16c.05,1.11-.8,2.05-1.91,2.1-.04,0-.08,0-.12,0-4.83-.07-9.53-.08-13.69,2.67-2.27,1.5-1.84,5.74-.99,7.88.13.32.36.57.66.73Z"/>
  <path class="cls-2" d="m450.12,348.05c-.63,0-.98.32-1.03.95-.27,3.21-.2,6.29.23,9.26.76,5.35,15.64,3.7,19.12,3.73,5.92.04,12.1.22,18.54.54.98.05,1.48.56,1.49,1.54,0,.1,0,.2-.01.3-.07.76-.49,1.13-1.26,1.11-7.38-.23-15.01-.22-22.89.05-6.53.23-12.95.09-18.89-2.71-2.74-1.29-4.21-3.46-4.37-6.48-.32-6.14-.44-12.85-.36-20.12.04-3.56,1.38-6.33,4.02-8.3,3.12-2.33,6.35-3.54,9.69-3.64,4.41-.13,8.71-.08,12.92.17,1.38.08,2.1.81,2.15,2.2l.02.61c.05,1.36-.6,2.05-1.96,2.07-5.82.1-11.42-.37-16.95,1.96-.55.23-.96.72-1.09,1.3-.59,2.59-.69,5.61-.3,9.06.08.72.48,1.08,1.21,1.07,11.46-.14,23.88,0,37.27.42.91.03,1.35.5,1.32,1.4l-.06,1.94c-.03,1.03-.56,1.58-1.59,1.65-3.66.23-7.09.3-10.29.2-9.4-.29-18.38-.38-26.93-.28Z"/>
  <path class="cls-2" d="m328.63,328.38l.15,35.06c.01,1.67-1.34,3.04-3.01,3.05-.09,0-.18,0-.27-.01l-2.37-.2c-1.58-.13-2.79-1.46-2.78-3.04l.26-35.82c.01-1.67,1.38-3.02,3.05-3.01.45,0,.9.11,1.31.31l1.95.95c1.04.5,1.7,1.55,1.71,2.71Z"/>
  <path class="cls-2" d="m376.33,342.42c-3.61-2.74-9.58-2.76-14.04-2.65-1.27.03-1.86-.6-1.75-1.87.12-1.37.18-2.09.19-2.18.11-1.29.81-1.91,2.08-1.86,2.27.09,4.64.15,7.13.17,3.58.03,7.12,1.09,10.35,2.59,2.77,1.27,4.22,3.51,4.36,6.72.28,6.13.07,11.88-.62,17.27-.09.73-.43,1.31-1.02,1.75-3.56,2.69-7.1,3.9-10.61,3.64-2-.15-3.98-.16-5.93-.04-6.89.42-13.18.42-18.86,0-5.12-.38-10.94-1.89-11.73-7.99-.74-5.69-.05-9.78,6.06-12.33,2.44-1.02,4.71-1.52,6.8-1.5,7.33.06,15.09.14,23.29.24,1.25.01,2.53-.06,3.84-.23.53-.06.9-.54.84-1.07-.03-.26-.17-.49-.38-.65Zm-31.12,8.89c-2.52,1.42-2.06,5.26-1.82,7.62.03.33.2.57.49.72,2.2,1.08,4.25,1.67,6.14,1.76,6.13.31,12.69.52,19.69.63,2.51.03,4.8-.78,7.17-1.61.33-.11.49-.35.48-.7l-.39-8.62c-.03-.74-.65-1.33-1.39-1.33-7.91-.01-15.69-.11-23.35-.3-2.41-.06-4.75.55-7.02,1.83Z"/>
  <path class="cls-2" d="m533.35,344.53c-.05-3.4-2.87-4.75-5.95-4.86-7.88-.29-14.42-.26-19.63.09-3.27.22-4.87,2.02-4.8,5.39.13,5.98-.26,12.26-1.17,18.83-.07.55-.47.99-1.01,1.12-1.31.31-2.64.28-3.99-.11-.49-.14-.83-.57-.86-1.08-.31-5.64-.53-11.24-.68-16.8-.1-3.95.26-8.95,4.4-10.71,4.1-1.75,7.72-2.68,12.19-2.65,5.91.05,11.5.16,16.79.34,4.79.17,12.24,2.33,12.49,8.14.3,6.79.22,13.33-.24,19.62-.15,2.1-1.59,3.76-3.39,3.94-.16.01-.32.03-.48.06-1.59.3-2.47-.36-2.62-1.97-.6-6.42-.95-12.87-1.05-19.35Z"/>
  <path class="cls-2" d="m555.59,357.05c.25.65.57,1.23.96,1.73,1.51,1.92,3.42,2.99,5.71,3.21,2.97.29,6.28-.44,9.22.38.38.11.63.35.75.73.19.58.2,1.16.02,1.74-.19.6-.74,1-1.36,1-3.75,0-7.52-.05-11.33-.18-7-.24-11.98-2.62-12.45-10.48-.21-3.47-.22-6.95-.04-10.44.21-4.26,2.38-7.2,6.51-8.83,3.49-1.37,6.58-2.07,9.27-2.1,5.43-.05,11.26,0,17.47.15,4.89.12,12.86,2.3,13.3,8.33.27,3.75.21,7.26-.19,10.52-.08.61-.59,1.07-1.21,1.07l-34.49.09c-2.19,0-2.91,1.03-2.14,3.08Zm1.1-8.11l27.62.04c.94,0,1.7-.76,1.71-1.7v-2.93c.01-2.64-5.21-4.79-11.65-4.8l-7.7-.02c-6.45-.01-11.67,2.12-11.68,4.76h0s-.01,2.93-.01,2.93c0,.94.76,1.71,1.7,1.72,0,0,0,0,.01,0Z"/>
  <path class="cls-2" d="m145.31,358.89c.1-1.65.48-3.28.46-4.94-.07-4.93-.06-9.93,0-15,.01-1.03.16-2.17.44-3.44.26-1.19,1-1.71,2.21-1.56l3.49.44c1.04.13,1.84.99,1.9,2.04.37,6.67.39,13.68.06,21.03-.33,7.12-11.05,9.41-16.42,9.48-5.55.07-11.31.12-17.29.13-4.88,0-11.09-1.5-13.09-6.51-.56-1.42-.85-3.3-.87-5.64-.05-6.16.04-12.24.25-18.24.07-1.84,1.02-2.74,2.86-2.7l2.51.06c1.62.04,2.44.87,2.47,2.49.13,7.37.14,13.77.04,19.21-.03,1.19.2,2.28.69,3.25.15.3.39.51.7.62,3.19,1.13,5.64,1.72,7.34,1.77,6.88.21,14.88.92,21.64-1.68.37-.15.57-.42.6-.81Z"/>
  <path class="cls-2" d="m274.28,364.64c-4.04-.94-6.91-4.87-6.88-9.19.03-3.31.02-6.51-.05-9.59-.14-7.3,5.17-9.66,11.19-11.34,1.52-.43,3.21-.63,5.07-.6,5.76.08,11.07.11,15.93.08,3.42-.02,6.66.9,9.71,2.77,2.83,1.72,4.29,4.32,4.38,7.8.11,4.19.09,8.19-.08,11.98-.17,3.87-2.1,6.37-5.78,7.52-5.62,1.75-11.61,1.28-17.36,1.69-5.09.37-11.21.03-16.13-1.12Zm31.35-7.91l.12-11.48c.03-3.03-2.39-5.51-5.42-5.54h0l-15.47-.16c-5.16-.06-9.38,2.23-9.41,5.11h0s-.12,12.02-.12,12.02c-.03,2.88,4.13,5.25,9.29,5.31l15.47.16c3.03.03,5.51-2.39,5.54-5.42h0Z"/>
  <path class="cls-2" d="m410.4,339.73c-4.67-.28-11.8.06-11.83,6.31-.03,6.91-.21,13.05-.56,18.42-.05.85-.5,1.27-1.35,1.28l-3.76.03c-1.14.01-1.76-.55-1.87-1.68-.75-8.06-.8-14.95-.15-20.67.98-8.71,13.27-10.02,19.41-9.01,1.67.27,2.59,1.23,2.74,2.86.06.71-.35,1.39-1.24,2.04-.4.3-.89.45-1.39.42Z"/>
  <path class="cls-2" d="m599.09,341.23c3.09-7.12,12.78-7.92,19.77-7.06.83.11,1.51.71,1.72,1.52.58,2.27-.26,3.59-2.52,3.96-2.78.45-11.4.09-11.42,4.69-.03,6.83-.15,13.57-.37,20.24-.04.96-.78,1.75-1.73,1.84-1.57.14-3.25-.03-5.05-.51-.32-.09-.5-.29-.55-.62-.67-4.51-1.05-9.93-1.12-16.27-.03-3.15.39-5.75,1.27-7.79Z"/>
  <path class="cls-2" d="m663.42,367.38c-8.02-.97-16.03-.5-23.93-.65-2.04-.03-4.51-.66-7.41-1.87-5.31-2.22-5.63-7.62-5.6-12.57.05-6.58-1.25-13.47,6.65-16.14,3.56-1.2,6.97-2.25,10.81-2.23,4.66.02,9.26.08,13.8.19,3.66.09,7.38,1.18,11.16,3.27,3.15,1.73,4.73,4.25,4.76,7.55.07,7.79.09,14.97.06,21.54-.02,4.03-2.85,6.74-6.31,8.24-5.16,2.25-10.83,2.89-17.01,1.92-1.47-.23-2.15-1.09-2.04-2.58l.03-.47c.11-1.53.94-2.24,2.47-2.12,4.91.39,9.19-.58,12.83-2.91.99-.63.9-1.02-.27-1.17Zm1.65-23.09c-.46-6.08-20.42-4.77-24.22-4.56-1.39.08-2.93.6-4.61,1.56-1.47.83-1.84,2.2-1.84,3.76.02,3.24.09,6.64.2,10.21.21,6.34,6.39,6.19,10.96,6.17,6.19-.04,12.23-.1,18.14-.17.7-.01,1.27-.55,1.33-1.24.43-5.13.45-10.38.04-15.73Z"/>
  <path class="cls-2" d="m718.5,368.7c.59-.67.45-1.1-.43-1.27-1.97-.39-3.81-.6-5.53-.62-5.41-.07-11.09.02-17.04.26-3.8.16-7.33-.55-10.6-2.4-3.44-1.95-4.27-4.86-4.21-8.96.08-5.58.14-11.68.17-18.31.01-2.71,1.36-3.72,4-3.45,2.55.25,3.83,1.66,3.85,4.25.05,5.14,0,10.36-.15,15.66-.05,1.63.15,3.19.6,4.69.69,2.35,6.98,2.64,9.04,2.67,6.85.1,13.34.05,19.48-.15.86-.03,1.55-.73,1.55-1.6.03-5.73.15-12.98.34-21.74.05-2.62,1.31-3.84,3.77-3.67,2.6.18,3.91.99,3.9,3.8-.02,9.87-.01,19.5.02,28.88.04,11.27-14.76,10.62-22.55,10.19-1.44-.08-2.14-.84-2.11-2.29l.03-1.06c.04-1.71.91-2.48,2.61-2.29,4.14.44,10.48.52,13.26-2.59Z"/>
</svg>